<svg width="201" height="201" viewBox="0 0 201 201" fill="none" xmlns="http://www.w3.org/2000/svg">
<g filter="url(#filter0_d_1_21)">
<rect x="40" y="20" width="121" height="121" rx="20" fill="white"/>
</g>
<g clip-path="url(#clip0_1_21)">
<path d="M129.241 107.484H127.366V72.7973C127.366 71.8265 126.579 71.0395 125.609 71.0395H118.577C117.607 71.0395 116.82 71.8265 116.82 72.7973V107.484H113.304V84.5159C113.304 83.5451 112.517 82.7581 111.546 82.7581H104.515C103.544 82.7581 102.757 83.5451 102.757 84.5159V107.484H99.2418V90.9611C99.2418 89.9904 98.4548 89.2033 97.484 89.2033H90.4529C89.4821 89.2033 88.6951 89.9904 88.6951 90.9611V107.484H85.1795V95.1798C85.1795 94.209 84.3925 93.422 83.4217 93.422H76.3905C75.4198 93.422 74.6328 94.209 74.6328 95.1798V107.484H72.7578C71.787 107.484 71 108.271 71 109.242C71 110.213 71.787 111 72.7578 111H129.241C130.212 111 130.999 110.213 130.999 109.242C130.999 108.271 130.212 107.484 129.241 107.484Z" fill="#0075FF"/>
<path d="M72.7578 88.7703C83.7285 88.7703 95.6254 84.8302 106.257 77.6759C114.584 72.0727 121.525 64.9146 125.836 57.585L127.544 63.956C127.754 64.7414 128.77 65.4199 129.696 65.1989C130.641 64.9737 131.191 63.9838 130.939 63.0461L128.061 52.3036C127.809 51.366 126.846 50.8094 125.908 51.0608L115.166 53.9392C114.228 54.1905 113.671 55.1543 113.923 56.092C114.174 57.0298 115.137 57.5864 116.076 57.3349L122.996 55.4806C118.974 62.4702 112.326 69.3547 104.295 74.7592C94.2367 81.5274 83.0367 85.2547 72.7578 85.2547C71.787 85.2547 71 86.0417 71 87.0125C71 87.9832 71.787 88.7703 72.7578 88.7703V88.7703Z" fill="#0075FF"/>
</g>
<defs>
<filter id="filter0_d_1_21" x="0" y="0" width="201" height="201" filterUnits="userSpaceOnUse" color-interpolation-filters="sRGB">
<feFlood flood-opacity="0" result="BackgroundImageFix"/>
<feColorMatrix in="SourceAlpha" type="matrix" values="0 0 0 0 0 0 0 0 0 0 0 0 0 0 0 0 0 0 127 0" result="hardAlpha"/>
<feOffset dy="20"/>
<feGaussianBlur stdDeviation="20"/>
<feColorMatrix type="matrix" values="0 0 0 0 0 0 0 0 0 0 0 0 0 0 0 0 0 0 0.25 0"/>
<feBlend mode="normal" in2="BackgroundImageFix" result="effect1_dropShadow_1_21"/>
<feBlend mode="normal" in="SourceGraphic" in2="effect1_dropShadow_1_21" result="shape"/>
</filter>
<clipPath id="clip0_1_21">
<rect width="60" height="60" fill="white" transform="translate(71 51)"/>
</clipPath>
</defs>
</svg>
